<svg width="124" height="75" viewBox="0 0 124 75" fill="none" xmlns="http://www.w3.org/2000/svg">
<path d="M4.56 70.24C3.56 70.24 2.72 69.98 2.04 69.46C1.38 68.94 1.05 68.19 1.05 67.21C1.05 66.37 1.29 65.71 1.77 65.23C2.27 64.73 2.89 64.37 3.63 64.15C4.37 63.93 5.12 63.79 5.88 63.73L8.82 63.49V64.63L6.27 64.87C5.39 64.93 4.71 65.13 4.23 65.47C3.77 65.81 3.54 66.32 3.54 67C3.54 67.54 3.69 67.96 3.99 68.26C4.31 68.56 4.78 68.71 5.4 68.71C6.06 68.71 6.71 68.56 7.35 68.26C8.01 67.96 8.51 67.59 8.85 67.15L9.12 67.72C8.7 68.46 8.08 69.07 7.26 69.55C6.46 70.01 5.56 70.24 4.56 70.24ZM1.41 59.86C1.71 59.02 2.31 58.38 3.21 57.94C4.11 57.5 5.14 57.28 6.3 57.28C7.76 57.28 8.85 57.65 9.57 58.39C10.29 59.11 10.65 60.22 10.65 61.72V67.93C10.65 68.37 10.87 68.61 11.31 68.65L12.54 68.77V69.79C12.34 69.85 12.03 69.93 11.61 70.03C11.19 70.13 10.8 70.18 10.44 70.18C9.84 70.18 9.36 70.01 9 69.67C8.66 69.33 8.45 68.83 8.37 68.17V62.05C8.37 60.93 8.14 60.15 7.68 59.71C7.24 59.25 6.56 59.02 5.64 59.02C4.96 59.02 4.31 59.13 3.69 59.35C3.07 59.57 2.5 59.93 1.98 60.43L1.41 59.86ZM22.3936 70V68.89L23.5936 68.68C23.7736 68.64 23.9136 68.57 24.0136 68.47C24.1336 68.37 24.1936 68.21 24.1936 67.99V62.44C24.1936 61.24 24.0236 60.34 23.6836 59.74C23.3636 59.14 22.7336 58.84 21.7936 58.84C21.0536 58.84 20.3436 58.98 19.6636 59.26C19.0036 59.54 18.4036 59.95 17.8636 60.49L17.9536 59.56C18.5936 58.68 19.3336 58.07 20.1736 57.73C21.0136 57.39 21.8836 57.22 22.7836 57.22C24.2236 57.22 25.2036 57.64 25.7236 58.48C26.2436 59.32 26.5036 60.5 26.5036 62.02V67.99C26.5036 68.39 26.7036 68.62 27.1036 68.68L28.4536 68.89V70H22.3936ZM14.2636 70V68.89L15.5836 68.68C15.9836 68.62 16.1836 68.39 16.1836 67.99V59.8C16.1836 59.42 15.9936 59.2 15.6136 59.14L14.0836 58.93V57.85C14.6836 57.67 15.3136 57.53 15.9736 57.43C16.6536 57.33 17.2836 57.27 17.8636 57.25L18.2836 57.64L18.5236 59.8V67.99C18.5236 68.39 18.7136 68.62 19.0936 68.68L20.3236 68.89V70H14.2636ZM31.6425 59.11L29.7525 58.87V57.85L31.1325 57.64C31.3325 57.6 31.4825 57.54 31.5825 57.46C31.6825 57.36 31.7525 57.22 31.7925 57.04L32.6025 53.89H33.9525L33.9825 57.52H38.0625V59.02H34.0125V66.13C34.0125 67.09 34.1625 67.73 34.4625 68.05C34.7825 68.35 35.2225 68.5 35.7825 68.5C36.2425 68.5 36.6625 68.42 37.0425 68.26C37.4425 68.1 37.7825 67.86 38.0625 67.54L38.7225 68.17C38.4025 68.85 37.9025 69.36 37.2225 69.7C36.5625 70.04 35.8125 70.21 34.9725 70.21C34.3725 70.21 33.8125 70.12 33.2925 69.94C32.7925 69.76 32.3925 69.43 32.0925 68.95C31.7925 68.47 31.6425 67.79 31.6425 66.91V59.11ZM44.5692 67.99C44.5692 68.39 44.7692 68.62 45.1692 68.68L46.4892 68.89V70H40.3092V68.89L41.6292 68.68C42.0292 68.62 42.2292 68.39 42.2292 67.99V59.8C42.2292 59.4 42.0392 59.18 41.6592 59.14L40.1292 58.93V57.85C40.7692 57.65 41.4492 57.51 42.1692 57.43C42.9092 57.33 43.5992 57.27 44.2392 57.25L44.5692 57.61V67.99ZM44.7492 53.89C44.7492 54.35 44.5992 54.73 44.2992 55.03C43.9992 55.31 43.6092 55.45 43.1292 55.45C42.6492 55.45 42.2592 55.31 41.9592 55.03C41.6592 54.73 41.5092 54.35 41.5092 53.89C41.5092 53.41 41.6592 53.03 41.9592 52.75C42.2592 52.45 42.6492 52.3 43.1292 52.3C43.6092 52.3 43.9992 52.45 44.2992 52.75C44.5992 53.03 44.7492 53.41 44.7492 53.89ZM52.3559 67.99C52.3559 68.39 52.5459 68.62 52.9259 68.68L54.5159 68.92V70H47.8259V68.89L49.4159 68.68C49.8159 68.62 50.0159 68.4 50.0159 68.02V52.9C50.0159 52.52 49.8159 52.3 49.4159 52.24L47.7659 52V51.01C48.3859 50.83 49.0859 50.69 49.8659 50.59C50.6659 50.47 51.3759 50.4 51.9959 50.38L52.3559 50.74V67.99ZM59.6381 70.24C58.6381 70.24 57.7981 69.98 57.1181 69.46C56.4581 68.94 56.1281 68.19 56.1281 67.21C56.1281 66.37 56.3681 65.71 56.8481 65.23C57.3481 64.73 57.9681 64.37 58.7081 64.15C59.4481 63.93 60.1981 63.79 60.9581 63.73L63.8981 63.49V64.63L61.3481 64.87C60.4681 64.93 59.7881 65.13 59.3081 65.47C58.8481 65.81 58.6181 66.32 58.6181 67C58.6181 67.54 58.7681 67.96 59.0681 68.26C59.3881 68.56 59.8581 68.71 60.4781 68.71C61.1381 68.71 61.7881 68.56 62.4281 68.26C63.0881 67.96 63.5881 67.59 63.9281 67.15L64.1981 67.72C63.7781 68.46 63.1581 69.07 62.3381 69.55C61.5381 70.01 60.6381 70.24 59.6381 70.24ZM56.4881 59.86C56.7881 59.02 57.3881 58.38 58.2881 57.94C59.1881 57.5 60.2181 57.28 61.3781 57.28C62.8381 57.28 63.9281 57.65 64.6481 58.39C65.3681 59.11 65.7281 60.22 65.7281 61.72V67.93C65.7281 68.37 65.9481 68.61 66.3881 68.65L67.6181 68.77V69.79C67.4181 69.85 67.1081 69.93 66.6881 70.03C66.2681 70.13 65.8781 70.18 65.5181 70.18C64.9181 70.18 64.4381 70.01 64.0781 69.67C63.7381 69.33 63.5281 68.83 63.4481 68.17V62.05C63.4481 60.93 63.2181 60.15 62.7581 59.71C62.3181 59.25 61.6381 59.02 60.7181 59.02C60.0381 59.02 59.3881 59.13 58.7681 59.35C58.1481 59.57 57.5781 59.93 57.0581 60.43L56.4881 59.86ZM70.7245 59.11L68.8345 58.87V57.85L70.2145 57.64C70.4145 57.6 70.5645 57.54 70.6645 57.46C70.7645 57.36 70.8345 57.22 70.8745 57.04L71.6845 53.89H73.0345L73.0645 57.52H77.1445V59.02H73.0945V66.13C73.0945 67.09 73.2445 67.73 73.5445 68.05C73.8645 68.35 74.3045 68.5 74.8645 68.5C75.3245 68.5 75.7445 68.42 76.1245 68.26C76.5245 68.1 76.8645 67.86 77.1445 67.54L77.8045 68.17C77.4845 68.85 76.9845 69.36 76.3045 69.7C75.6445 70.04 74.8945 70.21 74.0545 70.21C73.4545 70.21 72.8945 70.12 72.3745 69.94C71.8745 69.76 71.4745 69.43 71.1745 68.95C70.8745 68.47 70.7245 67.79 70.7245 66.91V59.11ZM79.2183 63.94C79.2183 61.84 79.7383 60.2 80.7783 59.02C81.8383 57.82 83.2583 57.22 85.0383 57.22C86.3983 57.22 87.4983 57.59 88.3383 58.33C89.1783 59.07 89.5983 60.15 89.5983 61.57C89.5983 61.77 89.5883 62.02 89.5683 62.32C89.5483 62.6 89.5183 62.86 89.4783 63.1H80.9283V61.96H87.2283C87.2483 61.86 87.2583 61.77 87.2583 61.69C87.2783 61.61 87.2883 61.51 87.2883 61.39C87.2883 60.53 87.0583 59.83 86.5983 59.29C86.1583 58.73 85.5283 58.45 84.7083 58.45C83.7683 58.45 83.0283 58.84 82.4883 59.62C81.9483 60.4 81.6783 61.66 81.6783 63.4C81.6783 64.72 81.8383 65.77 82.1583 66.55C82.4783 67.31 82.9083 67.86 83.4483 68.2C84.0083 68.52 84.6483 68.68 85.3683 68.68C86.0683 68.68 86.7183 68.52 87.3183 68.2C87.9383 67.88 88.4283 67.44 88.7883 66.88L89.5383 67.33C89.2783 68.23 88.7183 68.95 87.8583 69.49C87.0183 70.03 85.9683 70.3 84.7083 70.3C83.4683 70.3 82.4383 70.03 81.6183 69.49C80.8183 68.93 80.2183 68.18 79.8183 67.24C79.4183 66.28 79.2183 65.18 79.2183 63.94ZM95.6496 60.37C95.9096 59.89 96.2696 59.41 96.7296 58.93C97.2096 58.43 97.7496 58.02 98.3496 57.7C98.9696 57.38 99.5996 57.22 100.24 57.22C100.46 57.22 100.71 57.25 100.99 57.31C101.29 57.37 101.54 57.45 101.74 57.55C101.78 58.15 101.77 58.84 101.71 59.62C101.67 60.38 101.58 61.08 101.44 61.72H100.33L99.9996 60.01C99.9396 59.77 99.8496 59.6 99.7296 59.5C99.6296 59.4 99.4696 59.35 99.2496 59.35C98.6696 59.35 98.0696 59.5 97.4496 59.8C96.8296 60.08 96.2696 60.53 95.7696 61.15L95.6496 60.37ZM96.1896 60.34V67.99C96.1896 68.41 96.3996 68.64 96.8196 68.68L99.0096 68.92V70H91.9296V68.89L93.2496 68.68C93.6496 68.62 93.8496 68.39 93.8496 67.99V59.86C93.8496 59.42 93.6496 59.17 93.2496 59.11L91.7496 58.93V57.85C92.3296 57.67 92.9496 57.53 93.6096 57.43C94.2896 57.33 94.9196 57.27 95.4996 57.25L95.8596 57.61L96.1896 60.34ZM106.777 70.24C105.777 70.24 104.937 69.98 104.257 69.46C103.597 68.94 103.267 68.19 103.267 67.21C103.267 66.37 103.507 65.71 103.987 65.23C104.487 64.73 105.107 64.37 105.847 64.15C106.587 63.93 107.337 63.79 108.097 63.73L111.037 63.49V64.63L108.487 64.87C107.607 64.93 106.927 65.13 106.447 65.47C105.987 65.81 105.757 66.32 105.757 67C105.757 67.54 105.907 67.96 106.207 68.26C106.527 68.56 106.997 68.71 107.617 68.71C108.277 68.71 108.927 68.56 109.567 68.26C110.227 67.96 110.727 67.59 111.067 67.15L111.337 67.72C110.917 68.46 110.297 69.07 109.477 69.55C108.677 70.01 107.777 70.24 106.777 70.24ZM103.627 59.86C103.927 59.02 104.527 58.38 105.427 57.94C106.327 57.5 107.357 57.28 108.517 57.28C109.977 57.28 111.067 57.65 111.787 58.39C112.507 59.11 112.867 60.22 112.867 61.72V67.93C112.867 68.37 113.087 68.61 113.527 68.65L114.757 68.77V69.79C114.557 69.85 114.247 69.93 113.827 70.03C113.407 70.13 113.017 70.18 112.657 70.18C112.057 70.18 111.577 70.01 111.217 69.67C110.877 69.33 110.667 68.83 110.587 68.17V62.05C110.587 60.93 110.357 60.15 109.897 59.71C109.457 59.25 108.777 59.02 107.857 59.02C107.177 59.02 106.527 59.13 105.907 59.35C105.287 59.57 104.717 59.93 104.197 60.43L103.627 59.86ZM120.5 67.99C120.5 68.39 120.69 68.62 121.07 68.68L122.66 68.92V70H115.97V68.89L117.56 68.68C117.96 68.62 118.16 68.4 118.16 68.02V52.9C118.16 52.52 117.96 52.3 117.56 52.24L115.91 52V51.01C116.53 50.83 117.23 50.69 118.01 50.59C118.81 50.47 119.52 50.4 120.14 50.38L120.5 50.74V67.99Z" fill="#4F7CAC"/>
<line x1="26.1072" y1="24.7758" x2="98.2094" y2="24.7758" stroke="#4F7CAC" stroke-width="8.67741"/>
<path d="M80 7.17212L115.406 42.5777" stroke="#4F7CAC" stroke-width="8.67741" stroke-linecap="round"/>
<path d="M115.406 7L80 42.4055" stroke="#4F7CAC" stroke-width="8.67741" stroke-linecap="round"/>
<path d="M8 7.17212L43.4055 42.5777" stroke="#4F7CAC" stroke-width="8.67741" stroke-linecap="round"/>
<path d="M43.4055 7L7.99997 42.4055" stroke="#4F7CAC" stroke-width="8.67741" stroke-linecap="round"/>
</svg>
